<svg width="672" height="98" viewBox="0 0 672 98" fill="none" xmlns="http://www.w3.org/2000/svg">
<path d="M32.696 96L0.184 6.39999H16.76L42.68 77.76L68.664 6.39999H85.176L52.664 96H32.696ZM412.571 96L380.059 6.39999H396.635L422.555 77.76L448.539 6.39999H465.051L432.539 96H412.571Z" fill="#9F9F9F"/>
<path d="M126.215 97.664C120.327 97.664 114.951 96.1493 110.087 93.12C105.266 90.0907 101.404 86.016 98.503 80.896C95.6443 75.776 94.215 70.1227 94.215 63.936C94.215 59.2853 95.047 54.9333 96.711 50.88C98.375 46.784 100.658 43.2 103.559 40.128C106.503 37.0133 109.916 34.5813 113.799 32.832C117.682 31.0827 121.82 30.208 126.215 30.208C131.207 30.208 135.772 31.2747 139.911 33.408C144.092 35.4987 147.634 38.3787 150.535 42.048C153.436 45.7173 155.548 49.8987 156.871 54.592C158.194 59.2853 158.492 64.192 157.767 69.312H110.983C111.58 71.7013 112.562 73.856 113.927 75.776C115.292 77.6533 117.02 79.168 119.111 80.32C121.202 81.4293 123.57 82.0053 126.215 82.048C128.946 82.0907 131.42 81.4507 133.639 80.128C135.9 78.7627 137.778 76.928 139.271 74.624L155.207 78.336C152.604 84.0107 148.722 88.6613 143.559 92.288C138.396 95.872 132.615 97.664 126.215 97.664ZM110.471 57.6H141.959C141.49 55.04 140.487 52.736 138.951 50.688C137.458 48.5973 135.602 46.9333 133.383 45.696C131.164 44.4587 128.775 43.84 126.215 43.84C123.655 43.84 121.287 44.4587 119.111 45.696C116.935 46.8907 115.079 48.5333 113.543 50.624C112.05 52.672 111.026 54.9973 110.471 57.6ZM167.18 96V-7.62939e-06H182.796V96H167.18ZM236.296 96H216.136L192.84 31.936H209.48L226.248 78.016L242.952 31.936H259.592L236.296 96ZM294.715 97.664C288.827 97.664 283.451 96.1493 278.587 93.12C273.766 90.0907 269.904 86.016 267.003 80.896C264.144 75.776 262.715 70.1227 262.715 63.936C262.715 59.2853 263.547 54.9333 265.211 50.88C266.875 46.784 269.158 43.2 272.059 40.128C275.003 37.0133 278.416 34.5813 282.299 32.832C286.182 31.0827 290.32 30.208 294.715 30.208C299.707 30.208 304.272 31.2747 308.411 33.408C312.592 35.4987 316.134 38.3787 319.035 42.048C321.936 45.7173 324.048 49.8987 325.371 54.592C326.694 59.2853 326.992 64.192 326.267 69.312H279.483C280.08 71.7013 281.062 73.856 282.427 75.776C283.792 77.6533 285.52 79.168 287.611 80.32C289.702 81.4293 292.07 82.0053 294.715 82.048C297.446 82.0907 299.92 81.4507 302.139 80.128C304.4 78.7627 306.278 76.928 307.771 74.624L323.707 78.336C321.104 84.0107 317.222 88.6613 312.059 92.288C306.896 95.872 301.115 97.664 294.715 97.664ZM278.971 57.6H310.459C309.99 55.04 308.987 52.736 307.451 50.688C305.958 48.5973 304.102 46.9333 301.883 45.696C299.664 44.4587 297.275 43.84 294.715 43.84C292.155 43.84 289.787 44.4587 287.611 45.696C285.435 46.8907 283.579 48.5333 282.043 50.624C280.55 52.672 279.526 54.9973 278.971 57.6ZM370.984 47.616H358.568V96H342.952V47.616H333.48V32H342.952V11.904H358.568V32H370.984V47.616ZM477.93 32H493.546V96H477.93V32ZM485.866 23.744C483.562 23.744 481.621 22.9973 480.042 21.504C478.463 19.968 477.674 18.048 477.674 15.744C477.674 13.4827 478.463 11.584 480.042 10.048C481.621 8.512 483.541 7.744 485.802 7.744C488.063 7.744 489.962 8.512 491.498 10.048C493.077 11.584 493.866 13.4827 493.866 15.744C493.866 18.048 493.098 19.968 491.562 21.504C490.026 22.9973 488.127 23.744 485.866 23.744ZM526.81 97.152C523.482 96.9387 520.261 96.2773 517.146 95.168C514.074 94.016 511.343 92.4587 508.954 90.496C506.565 88.5333 504.73 86.1867 503.45 83.456L516.634 77.824C517.146 78.6773 517.978 79.5947 519.13 80.576C520.282 81.5147 521.647 82.304 523.226 82.944C524.847 83.584 526.618 83.904 528.538 83.904C530.159 83.904 531.695 83.6907 533.146 83.264C534.639 82.7947 535.834 82.0907 536.73 81.152C537.669 80.2133 538.138 78.9973 538.138 77.504C538.138 75.9253 537.583 74.7093 536.474 73.856C535.407 72.96 534.042 72.2987 532.378 71.872C530.757 71.4027 529.178 70.976 527.642 70.592C523.589 69.7813 519.813 68.5227 516.314 66.816C512.858 65.1093 510.063 62.912 507.93 60.224C505.839 57.4933 504.794 54.208 504.794 50.368C504.794 46.144 505.903 42.496 508.122 39.424C510.383 36.352 513.306 33.984 516.89 32.32C520.517 30.656 524.421 29.824 528.602 29.824C533.679 29.824 538.33 30.8907 542.554 33.024C546.821 35.1147 550.191 38.08 552.666 41.92L540.314 49.216C539.717 48.192 538.885 47.2533 537.818 46.4C536.751 45.504 535.535 44.7787 534.17 44.224C532.805 43.6267 531.375 43.2853 529.882 43.2C527.962 43.1147 526.213 43.2853 524.634 43.712C523.055 44.1387 521.775 44.864 520.794 45.888C519.855 46.912 519.386 48.2773 519.386 49.984C519.386 51.6053 520.026 52.8213 521.306 53.632C522.586 54.4 524.122 54.9973 525.914 55.424C527.749 55.8507 529.498 56.32 531.162 56.832C534.917 58.0693 538.437 59.584 541.722 61.376C545.05 63.168 547.717 65.3653 549.722 67.968C551.727 70.5707 552.687 73.6853 552.602 77.312C552.602 81.4507 551.365 85.0773 548.89 88.192C546.415 91.264 543.215 93.6107 539.29 95.232C535.407 96.8533 531.247 97.4933 526.81 97.152ZM597.859 47.616H585.443V96H569.827V47.616H560.355V32H569.827V11.904H585.443V32H597.859V47.616ZM656.186 32H671.802V96H656.186L655.482 88.064C653.733 90.9227 651.407 93.248 648.506 95.04C645.647 96.7893 642.255 97.664 638.33 97.664C633.594 97.664 629.157 96.768 625.018 94.976C620.879 93.184 617.231 90.7093 614.074 87.552C610.959 84.3947 608.506 80.7467 606.714 76.608C604.965 72.4693 604.09 68.032 604.09 63.296C604.09 58.7307 604.922 54.4427 606.586 50.432C608.293 46.4213 610.661 42.9013 613.69 39.872C616.719 36.8427 620.218 34.4747 624.186 32.768C628.154 31.0613 632.421 30.208 636.986 30.208C641.21 30.208 644.986 31.1467 648.314 33.024C651.685 34.9013 654.543 37.2907 656.89 40.192L656.186 32ZM637.946 82.624C641.274 82.624 644.218 81.792 646.778 80.128C649.338 78.464 651.343 76.224 652.794 73.408C654.245 70.5493 654.97 67.4133 654.97 64C654.97 60.544 654.245 57.408 652.794 54.592C651.343 51.7333 649.317 49.472 646.714 47.808C644.154 46.144 641.231 45.312 637.946 45.312C634.661 45.312 631.653 46.1653 628.922 47.872C626.234 49.536 624.079 51.776 622.458 54.592C620.879 57.408 620.09 60.544 620.09 64C620.09 67.456 620.901 70.592 622.522 73.408C624.143 76.224 626.298 78.464 628.986 80.128C631.717 81.792 634.703 82.624 637.946 82.624Z" fill="black"/>
</svg>
