<svg width="187" height="187" viewBox="0 0 187 187" fill="none" xmlns="http://www.w3.org/2000/svg">
<path d="M93.4936 175.3C148.041 175.3 175.3 138.674 175.3 93.4936C175.3 48.3133 148.041 11.6875 93.4936 11.6875C38.9453 11.6875 11.6875 48.3133 11.6875 93.4936C11.6875 138.674 38.9453 175.3 93.4936 175.3Z" fill="url(#paint0_radial_53_89)"/>
<path d="M93.4936 175.3C148.041 175.3 175.3 138.674 175.3 93.4936C175.3 48.3133 148.041 11.6875 93.4936 11.6875C38.9453 11.6875 11.6875 48.3133 11.6875 93.4936C11.6875 138.674 38.9453 175.3 93.4936 175.3Z" fill="url(#paint1_radial_53_89)"/>
<path d="M93.4936 175.3C148.041 175.3 175.3 138.674 175.3 93.4936C175.3 48.3133 148.041 11.6875 93.4936 11.6875C38.9453 11.6875 11.6875 48.3133 11.6875 93.4936C11.6875 138.674 38.9453 175.3 93.4936 175.3Z" fill="url(#paint2_radial_53_89)"/>
<path d="M93.4936 175.3C148.041 175.3 175.3 138.674 175.3 93.4936C175.3 48.3133 148.041 11.6875 93.4936 11.6875C38.9453 11.6875 11.6875 48.3133 11.6875 93.4936C11.6875 138.674 38.9453 175.3 93.4936 175.3Z" fill="url(#paint3_radial_53_89)" fill-opacity="0.6"/>
<path d="M93.4936 175.3C148.041 175.3 175.3 138.674 175.3 93.4936C175.3 48.3133 148.041 11.6875 93.4936 11.6875C38.9453 11.6875 11.6875 48.3133 11.6875 93.4936C11.6875 138.674 38.9453 175.3 93.4936 175.3Z" fill="url(#paint4_radial_53_89)"/>
<path d="M93.4936 175.3C148.041 175.3 175.3 138.674 175.3 93.4936C175.3 48.3133 148.041 11.6875 93.4936 11.6875C38.9453 11.6875 11.6875 48.3133 11.6875 93.4936C11.6875 138.674 38.9453 175.3 93.4936 175.3Z" fill="url(#paint5_radial_53_89)"/>
<path d="M93.4936 175.3C148.041 175.3 175.3 138.674 175.3 93.4936C175.3 48.3133 148.041 11.6875 93.4936 11.6875C38.9453 11.6875 11.6875 48.3133 11.6875 93.4936C11.6875 138.674 38.9453 175.3 93.4936 175.3Z" fill="url(#paint6_radial_53_89)"/>
<path fill-rule="evenodd" clip-rule="evenodd" d="M87.6562 61.3594C87.6562 69.6803 83.7918 77.0984 77.7593 81.9171C73.0662 80.3428 67.0676 78.8906 61.3594 78.8906C55.6512 78.8906 49.6526 80.3428 44.9593 81.9171C38.9271 77.0984 35.0625 69.6803 35.0625 61.3594C35.0625 46.836 46.836 35.0625 61.3594 35.0625C75.8828 35.0625 87.6562 46.836 87.6562 61.3594ZM151.938 61.3594C151.938 69.6803 148.073 77.0984 142.041 81.9171C137.347 80.3428 131.349 78.8906 125.641 78.8906C119.932 78.8906 113.934 80.3428 109.241 81.9171C103.208 77.0984 99.3438 69.6803 99.3438 61.3594C99.3438 46.836 111.117 35.0625 125.641 35.0625C140.164 35.0625 151.938 46.836 151.938 61.3594Z" fill="white"/>
<path fill-rule="evenodd" clip-rule="evenodd" d="M81.8125 61.3594C81.8125 69.7405 77.4916 76.9447 71.3066 80.1038C68.1025 79.3827 64.6815 78.8906 61.3594 78.8906C59.5332 78.8906 57.6778 79.0391 55.8447 79.2927C50.4237 75.8145 46.75 69.0872 46.75 61.3594C46.75 50.0634 54.599 40.9062 64.2812 40.9062C73.9638 40.9062 81.8125 50.0634 81.8125 61.3594ZM140.25 61.3594C140.25 69.0872 136.577 75.8145 131.155 79.2927C129.322 79.0391 127.467 78.8906 125.641 78.8906C122.318 78.8906 118.898 79.3827 115.693 80.1038C109.508 76.9447 105.188 69.7405 105.188 61.3594C105.188 50.0634 113.036 40.9062 122.719 40.9062C132.401 40.9062 140.25 50.0634 140.25 61.3594Z" fill="url(#paint7_linear_53_89)"/>
<path d="M132.758 140.404C134.575 146.598 129.166 151.938 122.711 151.938C99.6073 151.938 85.5086 151.938 64.2859 151.938C57.8309 151.938 52.4254 146.598 54.2421 140.404C59.2211 123.428 74.9128 111.031 93.5 111.031C112.087 111.031 127.779 123.428 132.758 140.404Z" fill="url(#paint8_radial_53_89)"/>
<defs>
<radialGradient id="paint0_radial_53_89" cx="0" cy="0" r="1" gradientUnits="userSpaceOnUse" gradientTransform="translate(149.016 52.5938) rotate(132.839) scale(219.16)">
<stop stop-color="#FFF478"/>
<stop offset="0.474827" stop-color="#FFB02E"/>
<stop offset="1" stop-color="#F70A8D"/>
</radialGradient>
<radialGradient id="paint1_radial_53_89" cx="0" cy="0" r="1" gradientUnits="userSpaceOnUse" gradientTransform="translate(149.016 52.5937) rotate(131.878) scale(227.606)">
<stop stop-color="#FFF478"/>
<stop offset="0.474827" stop-color="#FFB02E"/>
<stop offset="1" stop-color="#F70A8D"/>
</radialGradient>
<radialGradient id="paint2_radial_53_89" cx="0" cy="0" r="1" gradientUnits="userSpaceOnUse" gradientTransform="translate(93.5 73.0469) rotate(101.31) scale(104.291 133.577)">
<stop offset="0.787821" stop-color="#F59639" stop-opacity="0"/>
<stop offset="0.972509" stop-color="#FF7DCE"/>
</radialGradient>
<radialGradient id="paint3_radial_53_89" cx="0" cy="0" r="1" gradientUnits="userSpaceOnUse" gradientTransform="translate(105.188 81.8125) rotate(135) scale(239.665)">
<stop offset="0.314853" stop-opacity="0"/>
<stop offset="1"/>
</radialGradient>
<radialGradient id="paint4_radial_53_89" cx="0" cy="0" r="1" gradientUnits="userSpaceOnUse" gradientTransform="translate(93.5 99.3438) rotate(77.692) scale(164.483)">
<stop offset="0.507903" stop-color="#7D6133" stop-opacity="0"/>
<stop offset="1" stop-color="#715B32"/>
</radialGradient>
<radialGradient id="paint5_radial_53_89" cx="0" cy="0" r="1" gradientUnits="userSpaceOnUse" gradientTransform="translate(96.4219 96.4219) rotate(55.7131) scale(77.8008 56.3941)">
<stop stop-color="#FFB849"/>
<stop offset="1" stop-color="#FFB847" stop-opacity="0"/>
</radialGradient>
<radialGradient id="paint6_radial_53_89" cx="0" cy="0" r="1" gradientUnits="userSpaceOnUse" gradientTransform="translate(119.797 105.188) rotate(9.86581) scale(68.2118)">
<stop stop-color="#FFA64B"/>
<stop offset="0.900412" stop-color="#FFAE46" stop-opacity="0"/>
</radialGradient>
<linearGradient id="paint7_linear_53_89" x1="129.461" y1="40.9062" x2="121.109" y2="79.7578" gradientUnits="userSpaceOnUse">
<stop stop-color="#553B3E"/>
<stop offset="1" stop-color="#3D2432"/>
</linearGradient>
<radialGradient id="paint8_radial_53_89" cx="0" cy="0" r="1" gradientUnits="userSpaceOnUse" gradientTransform="translate(93.5 157.781) rotate(-90) scale(52.5937 105.188)">
<stop stop-color="#F70A8D"/>
<stop offset="1" stop-color="#89029C"/>
</radialGradient>
</defs>
</svg>
